Coordinates
version=1
nRows=24
nColumns=24
inDegrees=yes

Units are S.I. units (second, meters, Newtons, ...)
Angles are in degrees.

endheader
time	pelvis_tilt	pelvis_list	pelvis_rotation	pelvis_tx	pelvis_ty	pelvis_tz	hip_flexion_r	hip_adduction_r	hip_rotation_r	knee_angle_r	ankle_angle_r	subtalar_angle_r	mtp_angle_r	hip_flexion_l	hip_adduction_l	hip_rotation_l	knee_angle_l	ankle_angle_l	subtalar_angle_l	mtp_angle_l	lumbar_extension	lumbar_bending	lumbar_rotation
      3.16000000	    -10.47205879	     -3.27628498	      6.05939625	     -1.78995693	     -0.05174190	     -0.34858047	     40.51077021	     -0.57140723	     -7.88640360	    -16.48942027	     -1.81235469	      6.45759464	     13.89011004	     -3.81616795	     -1.88800161	      5.23895787	    -21.14375411	     24.74499338	     21.63244524	    -13.81858316	      9.51374305	     -1.82082508	    -17.70106814
      3.16500000	    -10.43946931	     -3.60921530	      6.22939807	     -1.78261357	     -0.05274153	     -0.34826166	     40.52423016	     -0.36306366	     -8.32045111	    -17.32720501	     -2.26122366	      6.27952797	     13.63950001	     -3.82589543	     -2.47597077	      4.80825706	    -22.07503452	     24.60750510	     22.75864646	    -13.36342883	      9.58632094	     -1.37745171	    -17.93408594
      3.17000000	    -10.39781708	     -3.97120228	      6.37295015	     -1.77526287	     -0.05361682	     -0.34789703	     40.51117601	     -0.10422234	     -8.72224948	    -18.11759440	     -2.92644932	      5.94356911	     13.51260092	     -3.82244811	     -3.11301686	      4.33351859	    -23.01544759	     24.30367947	     23.90264647	    -12.65200507	      9.65105147	     -0.89341445	    -18.15356327
      3.17500000	    -10.36741114	     -4.35562468	      6.47769995	     -1.76791668	     -0.05441245	     -0.34745587	     40.51720629	      0.20362099	     -9.08698455	    -18.90452667	     -3.71888797	      5.48030750	     13.40563176	     -3.77521752	     -3.79720305	      3.76496228	    -23.98173342	     23.83491513	     25.12025788	    -11.61039992	      9.72979174	     -0.37948129	    -18.32100164
      3.18000000	    -10.34524109	     -4.79663188	      6.47096236	     -1.76046122	     -0.05509502	     -0.34688956	     40.52313002	      0.64937971	     -9.31869417	    -19.65527566	     -4.63430194	      4.85131093	     13.21547103	     -3.74351297	     -4.54734982	      3.14585385	    -24.86463386	     23.00452279	     26.26621528	     -9.66275769	      9.84134249	      0.22992614	    -18.29654066
      3.18500000	    -10.38735932	     -5.20521161	      6.51935098	     -1.75312803	     -0.05567895	     -0.34635429	     40.61403630	      1.00913897	     -9.62308779	    -20.44398496	     -5.51606923	      4.30067373	     12.88135838	     -3.55504040	     -5.29154287	      2.46726278	    -25.86897445	     22.13541639	     27.59488591	     -8.05739235	     10.00532168	      0.76873528	    -18.40160057
      3.19000000	    -10.38622539	     -5.64288663	      6.57198400	     -1.74575864	     -0.05602562	     -0.34583823	     40.63754734	      1.42769508	     -9.79681405	    -21.21681176	     -6.33552359	      3.55659817	     12.15719589	     -3.42894853	     -6.04666336	      1.99949630	    -26.71426513	     20.64860942	     28.58789972	     -4.94678465	     10.12794960	      1.35097351	    -18.52226789
      3.19500000	    -10.45223208	     -6.07353730	      6.51969376	     -1.73845572	     -0.05650080	     -0.34510805	     40.77907900	      1.90662527	     -9.86010959	    -22.05033156	     -7.07940055	      2.79908318	     11.53332409	     -3.13469390	     -6.85989028	      1.16331043	    -27.83380273	     19.53536801	     30.04697474	     -3.09391737	     10.30788056	      1.92836464	    -18.48708416
      3.20000000	    -10.54078921	     -6.55704606	      6.39503292	     -1.73094689	     -0.05680580	     -0.34430422	     40.90264607	      2.49948030	     -9.84298616	    -22.82207719	     -7.80010498	      1.98050383	     10.67958263	     -2.84417182	     -7.73551047	      0.30769734	    -28.87764731	     18.11139603	     31.40508429	     -0.91836204	     10.55410605	      2.56563870	    -18.46005205
      3.20500000	    -10.57178326	     -6.95277192	      6.38566844	     -1.72358358	     -0.05696875	     -0.34365148	     40.98494443	      2.92507293	     -9.92277698	    -23.70531738	     -8.04563213	      1.54008138	      9.62819970	     -2.54936351	     -8.51837451	     -0.33901761	    -29.87551183	     16.14411370	     32.63775934	      2.55636288	     10.70371935	      3.09638280	    -18.50039806
      3.21000000	    -10.62791725	     -7.38068234	      6.26341262	     -1.71613360	     -0.05712881	     -0.34277949	     41.06196470	      3.49730242	     -9.80231205	    -24.50116942	     -8.36239123	      0.83182044	      8.76370897	     -2.20765546	     -9.36432285	     -1.11617283	    -30.98118931	     14.26120428	     33.95184026	      5.24821132	     10.89142447	      3.66624339	    -18.44133302
      3.21500000	    -10.68676375	     -7.78686545	      6.14096094	     -1.70867407	     -0.05722608	     -0.34183663	     41.10432573	      4.08541665	     -9.55694194	    -25.24466876	     -8.56798085	      0.06317060	      8.00460987	     -1.82436360	    -10.19733446	     -1.82282660	    -32.12906305	     12.22335985	     35.22596549	      7.79733724	     11.08109041	      4.19536891	    -18.42497248
      3.22000000	    -10.73914780	     -8.18852150	      6.01419128	     -1.70128464	     -0.05732248	     -0.34088773	     41.14056592	      4.66064069	     -9.40958690	    -25.99656561	     -8.59748669	     -0.55445553	      7.39820749	     -1.39683547	    -11.02004260	     -2.43353329	    -33.32256807	     10.01903758	     36.38593724	     10.47227430	     11.24702999	      4.72337282	    -18.34229726
      3.22500000	    -10.83762575	     -8.65259948	      5.86805727	     -1.69370042	     -0.05740040	     -0.33994489	     41.16274115	      5.29919278	     -9.31902774	    -26.64595144	     -8.54035729	     -1.09983352	      7.02739529	     -0.89815600	    -11.89741890	     -2.97399876	    -34.55168988	      7.70081383	     37.37316346	     12.73382770	     11.51259811	      5.30837654	    -18.32487435
      3.23000000	    -10.80939820	     -8.91596049	      5.67830035	     -1.68628120	     -0.05730433	     -0.33899893	     41.04804598	      5.78095899	     -9.16521943	    -27.36236611	     -8.10784505	     -1.18994411	      6.86330380	     -0.56620670	    -12.53037497	     -3.42573959	    -35.65686152	      4.95741054	     38.17248343	     15.64079667	     11.56984376	      5.71266661	    -18.18537521
      3.23500000	    -10.83805626	     -9.26206855	      5.50378383	     -1.67888212	     -0.05727076	     -0.33801029	     40.94307934	      6.34037635	     -9.03606953	    -27.95523831	     -7.74587041	     -1.44982961	      6.90152450	     -0.08315034	    -13.24323775	     -3.76576383	    -36.91614271	      2.33329506	     38.83447963	     17.69159803	     11.70616789	      6.17895228	    -18.09548614
      3.24000000	    -10.90147446	     -9.63798538	      5.38575410	     -1.67162287	     -0.05728811	     -0.33703168	     40.84982757	      6.88461569	     -9.00551401	    -28.48250301	     -7.35454683	     -1.72225743	      7.08014842	      0.54210384	    -13.96969877	     -3.92058817	    -38.30437661	     -0.20182119	     39.39313264	     19.11238319	     11.86847864	      6.64401964	    -18.10221143
      3.24500000	    -10.92117361	     -9.94979876	      5.18211491	     -1.66437320	     -0.05722508	     -0.33606146	     40.67373376	      7.40430437	     -8.95543601	    -28.98136840	     -6.78045718	     -1.66624094	      7.48326371	      1.09320733	    -14.58573433	     -4.07363982	    -39.64055731	     -2.88222219	     39.64024351	     20.52003881	     11.96547438	      7.07963613	    -17.99074914
      3.25000000	    -10.95567371	    -10.27047744	      4.97178230	     -1.65713046	     -0.05709869	     -0.33513795	     40.45573595	      7.93150096	     -8.92921425	    -29.37550300	     -6.22127131	     -1.62882882	      7.97649625	      1.69031848	    -15.15380079	     -4.09067680	    -40.99437624	     -5.53376592	     39.52503227	     21.48395309	     12.08651204	      7.52551993	    -17.86071034
      3.25500000	    -10.95626030	    -10.61311977	      4.72319628	     -1.65003652	     -0.05700189	     -0.33418143	     40.18532268	      8.50250144	     -8.91070728	    -29.73494902	     -5.56245766	     -1.49406209	      8.36272720	      2.32090579	    -15.74776607	     -4.14116075	    -42.53210182	     -7.77381974	     39.30402927	     21.25116099	     12.14236551	      8.01017975	    -17.68761070
      3.26000000	    -10.98762799	    -10.96630033	      4.49393463	     -1.64302186	     -0.05687739	     -0.33322897	     39.90900358	      9.05962401	     -8.94512688	    -30.01710865	     -4.91017642	     -1.30913581	      8.80167207	      3.03994989	    -16.32808972	     -4.11355504	    -44.07071305	    -10.01598557	     38.86250661	     21.09142729	     12.23054196	      8.48137366	    -17.55443687
      3.26500000	    -11.11800709	    -11.25861541	      4.33436945	     -1.63616825	     -0.05675167	     -0.33238581	     39.72574674	      9.44940723	     -9.18403325	    -30.26823311	     -4.29448363	     -0.94034154	      9.60991615	      3.94427480	    -16.78314018	     -3.89621933	    -45.56551732	    -12.39505440	     38.19572457	     21.39197341	     12.41670231	      8.85424944	    -17.47741403
      3.27000000	    -11.10705137	    -11.59958679	      4.05344851	     -1.62932001	     -0.05647545	     -0.33141622	     39.31837487	     10.04734917	     -9.11763866	    -30.38833122	     -3.68508426	     -0.77006906	     10.01672681	      4.67561670	    -17.32765054	     -3.91896734	    -47.12698353	    -14.36905737	     37.31147732	     20.95587145	     12.42568820	      9.33677662	    -17.28694664
      3.27500000	    -11.13271322	    -11.93841027	      3.80883994	     -1.62255241	     -0.05618549	     -0.33052739	     38.93120922	     10.58364759	     -9.19046875	    -30.46951862	     -3.07068532	     -0.47625529	     10.49622728	      5.51042802	    -17.84287222	     -3.87426344	    -48.70738639	    -16.15605002	     36.20263444	     20.48107094	     12.47713529	      9.79800191	    -17.10450370
